<svg version="1.1" xmlns="http://www.w3.org/2000/svg" xmlns:xlink="http://www.w3.org/1999/xlink" width="245.64779" height="68.58625" viewBox="0,0,245.64779,68.58625"><defs><linearGradient x1="180" y1="289.45687" x2="180" y2="350.54312" gradientUnits="userSpaceOnUse" id="color-1"><stop offset="0" stop-color="#90ff66"/><stop offset="1" stop-color="#66ff9c"/></linearGradient></defs><g transform="translate(-57.1761,-285.70688)"><g data-paper-data="{&quot;isPaintingLayer&quot;:true}" fill-rule="nonzero" stroke-linejoin="miter" stroke-miterlimit="10" stroke-dasharray="" stroke-dashoffset="0" style="mix-blend-mode: normal"><path d="M76.52127,350.54312c-8.61298,0 -15.59516,-6.98219 -15.59516,-15.59516v-29.89592c0,-8.61298 6.98219,-15.59516 15.59516,-15.59516h206.95747c8.61298,0 15.59516,6.98219 15.59516,15.59516v29.89592c0,8.61298 -6.98219,15.59516 -15.59516,15.59516z" fill="url(#color-1)" stroke="#000000" stroke-width="7.5" stroke-linecap="butt"/><path d="M271.73948,331.83393c-4.75592,0 -8.61135,-3.85543 -8.61135,-8.61135v-6.97995c0,-4.75592 3.85543,-8.61135 8.61135,-8.61135h6.97995c4.75592,0 8.61135,3.85543 8.61135,8.61135v6.97995c0,4.75592 -3.85543,8.61135 -8.61135,8.61135z" fill="#98ff66" stroke="#000000" stroke-width="2.5" stroke-linecap="butt"/><path d="M268.94362,319.06291l6.32618,4.76321l7.26757,-8.74495" fill="none" stroke="#ffffff" stroke-width="2.5" stroke-linecap="round"/><text transform="translate(71.1286,325.52388) scale(0.44504,0.44504)" font-size="40" xml:space="preserve" fill="#000000" fill-rule="nonzero" stroke="#000000" stroke-width="1" stroke-linecap="butt" stroke-linejoin="miter" stroke-miterlimit="10" stroke-dasharray="" stroke-dashoffset="0" font-family="&quot;Century Gothic&quot;, Sans Serif" font-weight="normal" text-anchor="start" style="mix-blend-mode: normal"><tspan x="0" dy="0">начать зарабатывать!</tspan></text></g></g></svg>