<svg version="1.1" xmlns="http://www.w3.org/2000/svg" xmlns:xlink="http://www.w3.org/1999/xlink" width="158.29936" height="75.80109" viewBox="0,0,158.29936,75.80109"><g transform="translate(-88.50042,-270.17688)"><g data-paper-data="{&quot;isPaintingLayer&quot;:true}" fill="#9966ff" fill-rule="nonzero" stroke="#000000" stroke-width="2" stroke-linecap="butt" stroke-linejoin="miter" stroke-miterlimit="10" stroke-dasharray="" stroke-dashoffset="0" style="mix-blend-mode: normal"><path d="M147.55487,344.97797c-2.20914,0 -4,-1.79086 -4,-4v-41.95594c0,-2.20914 1.79086,-4 4,-4h64.89025c2.20914,0 4,1.79086 4,4v41.95594c0,2.20914 -1.79086,4 -4,4z"/><path d="M93.50042,341.56934c-2.20914,0 -4,-1.79086 -4,-4v-36.96034c0,-2.20914 1.79086,-4 4,-4h36.96034c2.20914,0 4,1.79086 4,4v36.96034c0,2.20914 -1.79086,4 -4,4z"/><path d="M119.38668,286.84488c-2.20914,0 -4,-1.79086 -4,-4v-7.668c0,-2.20914 1.79086,-4 4,-4h53.08248c2.20914,0 4,1.79086 4,4v7.668c0,2.20914 -1.79086,4 -4,4z"/><path d="M191.82279,284.12002c-2.20914,0 -4,-1.77912 -4,-3.97377v0c0,-2.19465 1.79086,-3.97377 4,-3.97377h13.79895c2.20914,0 4,1.77912 4,3.97377v0c0,2.19465 -1.79086,3.97377 -4,3.97377z"/><path d="M222.67572,286.79673c-2.20914,0 -4,-1.79086 -4,-4v-3.24221c0,-2.20914 1.79086,-4 4,-4h3.24221c2.20914,0 4,1.79086 4,4v3.24221c0,2.20914 -1.79086,4 -4,4z"/><path d="M226.60157,323.55697c-2.20914,0 -4,-1.79086 -4,-4v-15.19821c0,-2.20914 1.79086,-4 4,-4h15.19821c2.20914,0 4,1.79086 4,4v15.19821c0,2.20914 -1.79086,4 -4,4z"/></g></g></svg>